<?xml version="1.0" encoding="UTF-8"?>
<svg id="Layer_1" xmlns="http://www.w3.org/2000/svg" viewBox="0 0 724.7 273.9">
  <!-- Generator: Adobe Illustrator 29.1.0, SVG Export Plug-In . SVG Version: 2.1.0 Build 142)  -->
  <defs>
    <style>
      .st0 {
        fill: #fafafa;
      }

      .st1 {
        fill: #f8f8f8;
      }
    </style>
  </defs>
  <g>
    <path class="st1" d="M100.1,198.1c-10.8,4.6-22.1,8.2-33.4,11.3,21.4-14.2,42.9-33.2,36.7-49.4-2.1-5.5-7.4-10.7-17.1-15.2-10.3-4.9-17.5-9.7-22.3-14.5-13.7-13.4-8.8-26.1-1.7-34.7,5.5-6.6,12.9-11.3,21.2-13.8l49.5-14.6c-11.1,8.1-21.3,16.7-29.8,27.5-3.8,4.8-6.9,10.3-7.3,16.4-.1,1.8,0,3.5.3,5,2.1,10.2,13.6,12.9,22.4,17.5,5.8,3,10.9,7.8,14.3,13.5,1.7,2.9,2.9,6.1,3.6,9.4,4.2,22.8-18.9,34.4-36.3,41.8h0Z"/>
    <path class="st0" d="M41.2,205.9c.4.7,1.1,1.4,1.8,2,4.9,4,11.9,4,17.2.5l4.7-3.2c12.9-8.8,21.8-16.9,29.5-25.8,6.4-7.4,5.9-14.7,5.8-15.5l-52.3,21.4c-8.2,3.3-11.4,13.2-6.7,20.7h0ZM51.6,191.1c4,.1,7.1,3.4,7,7.4s-3.4,7.1-7.4,7-7.1-3.4-7-7.4,3.4-7.1,7.4-7Z"/>
    <path class="st0" d="M156.7,69.8c-.5-.7-1.1-1.3-1.9-1.8-5.2-3.7-12.2-3.2-17.1.7l-4.5,3.5c-12.3,9.6-20.8,18.2-27.7,27.7-3.7,5.1-6.1,12.9-4.1,16l50.1-24.9c7.9-3.9,10.5-13.9,5.4-21.1h0ZM147.3,85.3c-4,.2-7.3-2.9-7.4-6.9s2.9-7.3,6.9-7.4c4-.2,7.3,2.9,7.4,6.9s-2.9,7.3-6.9,7.4Z"/>
  </g>
  <g>
    <path class="st1" d="M178,79c0-9.1,4.4-13.8,12.4-13.8h4.2c8.2,0,12.7,4.7,12.7,13.8v118.3c0,8.9-4.4,13.8-12.7,13.8h-4.2c-8,0-12.4-4.9-12.4-13.8v-118.3h0Z"/>
    <path class="st1" d="M273,162v35.1c0,7.7-6.3,14-14,14h-3.1c-8,0-12.4-5.1-12.4-14v-114.1c0-10.2,5.3-16.7,15.3-16.7h27.1c28.6,0,44.6,16.4,44.6,48s-15.8,47.7-44.2,47.7h-1c-4.1,0-7.4-3.3-7.4-7.4v-8.2c0-4,3.2-7.3,7.3-7.3h0c10.2,0,16.2-8.4,16.2-24.6s-6-24.9-16.4-24.9h-12"/>
    <path class="st1" d="M357.1,193.6v-110.6c0-10.4,5.3-16.7,15.1-16.7h54.6c9.1,0,13.5,4,13.5,11.8v2c0,8.2-4.4,12-13.5,12h-40.4v32h28c9.5,0,13.5,3.6,13.5,11.1v2.2c0,8.2-4.2,12.2-13.5,12.2h-28v34.6h41.3c9.1,0,13.3,3.6,13.3,11.1v2c0,8.4-4.2,12.7-13.3,12.7h-55.5c-9.8,0-15.1-6-15.1-16.4h0Z"/>
    <path class="st1" d="M497.4,154.9v42.6c0,7.5-6.1,13.5-13.5,13.5h-3.3c-8,0-12.2-5.1-12.2-15.1v-113.2c0-10.2,5.3-16.4,14.9-16.4h32.6c27.8,0,42.4,15.1,42.4,44.2s-8.2,34.4-23.3,39.7c.2.2-2,1.1-2.9,1.3l28.9,49.1c.9,1.3-5.1,10.4-17.5,10.4s-12.7-4.4-16.4-11.1l-22.7-44.2c-1-2-1.7-4.2-1.8-6.5-.2-5.5,2.5-10.7,11.3-13.6,10.3-3.4,15.4-8.1,15.4-22.7s-5.5-23.5-17.8-23.5h-13.8l-.2,65.5h0Z"/>
    <path class="st1" d="M589.3,193.3v-110.3c0-10.2,5.3-16.7,15.3-16.7h33.3c23.1,0,38.2,13.1,38.2,37.1s-7.3,25.8-18.4,30.4c14.7,4.9,22.7,18.4,22.7,35.5,0,27.5-15.1,40.6-45.5,40.6h-30.2c-10,0-15.3-6.4-15.3-16.6h0ZM631.3,127.8c9.1,0,15.5-7.3,15.5-20s-5.8-19.5-14.9-19.5h-13.3v39.5h12.7ZM633.5,188c11.3,0,16.9-6.2,16.9-21.5s-5.8-20-17.1-20h-14.7v41.5h14.9,0Z"/>
  </g>
</svg>